# xmcd
#
# Track frame offsets:
# 150
# 12985
# 25727
#
# Disc length: 545 seconds
#
#
# Revision: 0
# Processed by: cddbd v1.4PL0 Copyright (c) Steve Scherf et al.
# Submitted via: FreeRIP 2.35 
#
DISCID=17021f03
DTITLE=NaS - It Ain't Hard To Tell (Single)
DYEAR=1900
DGENRE=Rap
TTITLE0=It Ain't Hard To Tell (Remix)
TTITLE1=It Ain't Hard To Tell (Remix Instrumental)
TTITLE2=It Ain't Hard To Tell (Album Version)
EXTD=
EXTT0=
EXTT1=
EXTT2=
PLAYORDER=
